# xmcd CD database file
#
# Track frame offsets:
#	150
#	2560
#	71270
#	129117
#	178625
#	207362
#
# Disc length: 3609 seconds
#
# Revision: 4
# Processed by: cddbd v1.5.2PL0 Copyright (c) Steve Scherf et al.
# Submitted via: CDex 1.50
#
DISCID=430e1706
DTITLE=Kenny Barron Trio - Live At Bradley's II - The Perfect Set_K Barron (p.), R Drummond (b.), B Riley (d.)
DYEAR=2005
DGENRE=Jazz
TTITLE0=House Introductions
TTITLE1=You Don't Know What Love Is (G De Paul, D Raye)
TTITLE2=The Only One (K Barron)
TTITLE3=Twilight Song (H Villa-Lobos)
TTITLE4=Shuffle Boil (Th Monk)
TTITLE5=Well You Needn't( Th Monk)
EXTD=Stefon Harris vibraphone, Anne Drummond alto and C flute,Keiyoshi Kitagawa bass, Kim Thompson drums YEAR: 2005
EXTT0=
EXTT1=
EXTT2=
EXTT3=
EXTT4=
EXTT5=
PLAYORDER=
